<?xml version="1.0" standalone="no"?>
<!DOCTYPE svg PUBLIC "-//W3C//DTD SVG 20010904//EN"
 "http://www.w3.org/TR/2001/REC-SVG-20010904/DTD/svg10.dtd">
<svg version="1.0" xmlns="http://www.w3.org/2000/svg"
 width="700.000000pt" height="700.000000pt" viewBox="0 0 700.000000 700.000000"
 preserveAspectRatio="xMidYMid meet">
<metadata>
Created by potrace 1.14, written by Peter Selinger 2001-2017
</metadata>
<g transform="translate(0.000000,700.000000) scale(0.100000,-0.100000)"
fill="#000000" stroke="none">
<path d="M1605 6990 c-365 -54 -680 -308 -810 -653 -23 -61 -29 -85 -50 -182
-4 -16 -9 -96 -12 -176 l-5 -146 146 1 146 1 -2 -2335 -3 -2334 -144 0 -143 1
5 -146 c5 -161 9 -185 38 -286 104 -354 391 -623 759 -712 71 -17 172 -18
1955 -18 1034 0 1898 3 1920 6 319 50 601 254 751 544 80 155 111 289 113 489
l2 123 -143 -1 -143 -1 0 2334 0 2335 140 0 140 1 2 120 c2 199 -31 341 -118
505 -128 238 -346 419 -599 495 -151 45 -101 44 -2050 43 -1015 0 -1867 -4
-1895 -8z"/>
</g>
</svg>
